# xmcd CD database file
#
# Track frame offsets:
#	150
#	12021
#	24255
#	39246
#	53050
#	68701
#	91160
#	107687
#	122177
#	136852
#	148107
#	163021
#	177283
#	193310
#	208526
#
# Disc length: 2983 seconds
#
# Revision: 2
# Processed by: cddbd v1.5.2PL0 Copyright (c) Steve Scherf et al.
# Submitted via: CDex 1.51
#
DISCID=c60ba50f
DTITLE=Louis Armstrong - Vol.07 - He's A Son Of The South
DYEAR=1900
DGENRE=Jazz
TTITLE0=He's A Son Of The South
TTITLE1=Dipper Mouth Blues
TTITLE2=Jeannine
TTITLE3=Kiss Of Fire
TTITLE4=Mack The Knife
TTITLE5=Aunt Hagar's Blues
TTITLE6=Muskrat Ramble
TTITLE7=Oops!
TTITLE8=When It's Sleepy Time Down South
TTITLE9=When The Saints Go Marching In
TTITLE10=Sweethearts On Parade
TTITLE11=You're Drivin' Me Crazy
TTITLE12=The Peanut Vendor
TTITLE13=Just A Gigolo
TTITLE14=Shine
EXTD=
EXTT0=
EXTT1=
EXTT2=
EXTT3=
EXTT4=
EXTT5=
EXTT6=
EXTT7=
EXTT8=
EXTT9=
EXTT10=
EXTT11=
EXTT12=
EXTT13=
EXTT14=
PLAYORDER=
